<svg width="92" height="123" viewBox="0 0 92 123" fill="none" xmlns="http://www.w3.org/2000/svg">
<rect x="32" y="44" width="29" height="52" fill="#4FAA41"/>
<path d="M76.7031 24.525C83.2759 30.4625 87.9862 38.1783 90.2636 46.738C92.541 55.2977 92.2879 64.3341 89.5349 72.7529C86.7819 81.1717 81.6471 88.6117 74.7522 94.172C67.8574 99.7323 59.4984 103.174 50.6875 104.081V117.938C50.6875 119.181 50.1936 120.373 49.3146 121.252C48.4355 122.131 47.2432 122.625 46 122.625C44.7568 122.625 43.5645 122.131 42.6854 121.252C41.8064 120.373 41.3125 119.181 41.3125 117.938V104.081C32.5016 103.174 24.1425 99.7323 17.2477 94.172C10.3529 88.6117 5.2181 81.1717 2.46508 72.7529C-0.287938 64.3341 -0.541055 55.2977 1.73639 46.738C4.01383 38.1783 8.72413 30.4625 15.2969 24.525L38.1437 3.9C40.2976 1.95394 43.0972 0.87656 46 0.87656C48.9028 0.87656 51.7023 1.95394 53.8562 3.9L76.7031 24.525V24.525ZM50.6875 52.3219C50.6875 51.0787 50.1936 49.8864 49.3146 49.0073C48.4355 48.1282 47.2432 47.6344 46 47.6344C44.7568 47.6344 43.5645 48.1282 42.6854 49.0073C41.8064 49.8864 41.3125 51.0787 41.3125 52.3219V94.6406C44.4246 95.0419 47.5754 95.0419 50.6875 94.6406V52.3219Z" fill="#4FAA41"/>
<path d="M42.25 66.8182H26L48.75 21V47.1818H65L42.25 93V66.8182Z" fill="white"/>
</svg>
